<?xml version="1.0" encoding="utf-8" standalone="no"?>
<!DOCTYPE svg PUBLIC "-//W3C//DTD SVG 1.1//EN"
  "http://www.w3.org/Graphics/SVG/1.1/DTD/svg11.dtd">
<svg xmlns:xlink="http://www.w3.org/1999/xlink" width="720pt" height="576pt" viewBox="0 0 720 576" xmlns="http://www.w3.org/2000/svg" version="1.1">
 <metadata>
  <rdf:RDF xmlns:dc="http://purl.org/dc/elements/1.1/" xmlns:cc="http://creativecommons.org/ns#" xmlns:rdf="http://www.w3.org/1999/02/22-rdf-syntax-ns#">
   <cc:Work>
    <dc:type rdf:resource="http://purl.org/dc/dcmitype/StillImage"/>
    <dc:date>2024-06-30T15:52:51.320411</dc:date>
    <dc:format>image/svg+xml</dc:format>
    <dc:creator>
     <cc:Agent>
      <dc:title>Matplotlib v3.9.0, https://matplotlib.org/</dc:title>
     </cc:Agent>
    </dc:creator>
   </cc:Work>
  </rdf:RDF>
 </metadata>
 <defs>
  <style type="text/css">*{stroke-linejoin: round; stroke-linecap: butt}</style>
 </defs>
 <g id="figure_1">
  <g id="patch_1">
   <path d="M 0 576 
L 720 576 
L 720 0 
L 0 0 
z
" style="fill: #ffffff"/>
  </g>
  <g id="axes_1">
   <g id="patch_2">
    <path d="M 90 512.64 
L 648 512.64 
L 648 69.12 
L 90 69.12 
z
" style="fill: #ffffff"/>
   </g>
   <g id="matplotlib.axis_1">
    <g id="xtick_1">
     <g id="line2d_1">
      <path d="M 115.363636 512.64 
L 115.363636 69.12 
" clip-path="url(#p246bf83df6)" style="fill: none; stroke: #b0b0b0; stroke-opacity: 0.4; stroke-width: 0.8; stroke-linecap: square"/>
     </g>
     <g id="line2d_2">
      <defs>
       <path id="ma542998f70" d="M 0 0 
L 0 3.5 
" style="stroke: #000000; stroke-width: 0.8"/>
      </defs>
      <g>
       <use xlink:href="#ma542998f70" x="115.363636" y="512.64" style="stroke: #000000; stroke-width: 0.8"/>
      </g>
     </g>
     <g id="text_1">
      <!-- 2时 -->
      <g transform="translate(104.478636 530.783125) scale(0.14 -0.14)">
       <defs>
        <path id="SourceHanSansCN-Regular-32" d="M 282 0 
L 3232 0 
L 3232 506 
L 1933 506 
C 1696 506 1408 480 1165 461 
C 2266 1504 3002 2458 3002 3392 
C 3002 4230 2477 4781 1638 4781 
C 1043 4781 640 4506 256 4090 
L 595 3757 
C 851 4064 1184 4301 1568 4301 
C 2150 4301 2432 3910 2432 3373 
C 2432 2566 1754 1632 282 346 
L 282 0 
z
" transform="scale(0.015625)"/>
        <path id="SourceHanSansCN-Regular-65f6" d="M 2080 4390 
L 2080 2995 
L 992 2995 
L 992 4390 
L 2080 4390 
z
M 992 1120 
L 992 2566 
L 2080 2566 
L 2080 1120 
L 992 1120 
z
M 2528 4819 
L 544 4819 
L 544 179 
L 992 179 
L 992 685 
L 2528 685 
L 2528 4819 
z
M 6131 4077 
L 5357 4077 
L 5357 5318 
L 4883 5318 
L 4883 4077 
L 2816 4077 
L 2816 3610 
L 4883 3610 
L 4883 218 
C 4883 90 4832 51 4704 45 
C 4563 38 4090 38 3597 51 
C 3674 -77 3744 -294 3770 -422 
C 4410 -429 4813 -422 5037 -339 
C 5261 -269 5357 -122 5357 218 
L 5357 3610 
L 6131 3610 
L 6131 4077 
z
M 4422 1574 
C 4211 1958 3763 2611 3424 3098 
L 3034 2893 
C 3373 2400 3802 1722 4006 1331 
L 4422 1574 
z
" transform="scale(0.015625)"/>
       </defs>
       <use xlink:href="#SourceHanSansCN-Regular-32"/>
       <use xlink:href="#SourceHanSansCN-Regular-65f6" x="55.499985"/>
      </g>
     </g>
    </g>
    <g id="xtick_2">
     <g id="line2d_3">
      <path d="M 161.479339 512.64 
L 161.479339 69.12 
" clip-path="url(#p246bf83df6)" style="fill: none; stroke: #b0b0b0; stroke-opacity: 0.4; stroke-width: 0.8; stroke-linecap: square"/>
     </g>
     <g id="line2d_4">
      <g>
       <use xlink:href="#ma542998f70" x="161.479339" y="512.64" style="stroke: #000000; stroke-width: 0.8"/>
      </g>
     </g>
     <g id="text_2">
      <!-- 4时 -->
      <g transform="translate(150.594339 530.783125) scale(0.14 -0.14)">
       <defs>
        <path id="SourceHanSansCN-Regular-34" d="M 736 1760 
L 1805 3360 
C 1939 3590 2067 3821 2182 4051 
L 2208 4051 
C 2195 3808 2176 3430 2176 3200 
L 2176 1760 
L 736 1760 
z
M 2176 0 
L 2726 0 
L 2726 1293 
L 3347 1293 
L 3347 1760 
L 2726 1760 
L 2726 4698 
L 2080 4698 
L 128 1677 
L 128 1293 
L 2176 1293 
L 2176 0 
z
" transform="scale(0.015625)"/>
       </defs>
       <use xlink:href="#SourceHanSansCN-Regular-34"/>
       <use xlink:href="#SourceHanSansCN-Regular-65f6" x="55.499985"/>
      </g>
     </g>
    </g>
    <g id="xtick_3">
     <g id="line2d_5">
      <path d="M 207.595041 512.64 
L 207.595041 69.12 
" clip-path="url(#p246bf83df6)" style="fill: none; stroke: #b0b0b0; stroke-opacity: 0.4; stroke-width: 0.8; stroke-linecap: square"/>
     </g>
     <g id="line2d_6">
      <g>
       <use xlink:href="#ma542998f70" x="207.595041" y="512.64" style="stroke: #000000; stroke-width: 0.8"/>
      </g>
     </g>
     <g id="text_3">
      <!-- 6时 -->
      <g transform="translate(196.710041 530.783125) scale(0.14 -0.14)">
       <defs>
        <path id="SourceHanSansCN-Regular-36" d="M 1875 2477 
C 2445 2477 2726 2074 2726 1440 
C 2726 800 2374 371 1926 371 
C 1338 371 986 902 915 1875 
C 1203 2304 1581 2477 1875 2477 
z
M 1926 -83 
C 2656 -83 3270 531 3270 1440 
C 3270 2419 2765 2912 1971 2912 
C 1600 2912 1190 2694 902 2342 
C 928 3802 1472 4294 2112 4294 
C 2400 4294 2682 4160 2867 3936 
L 3187 4301 
C 2931 4576 2579 4781 2093 4781 
C 1184 4781 358 4077 358 2240 
C 358 691 1024 -83 1926 -83 
z
" transform="scale(0.015625)"/>
       </defs>
       <use xlink:href="#SourceHanSansCN-Regular-36"/>
       <use xlink:href="#SourceHanSansCN-Regular-65f6" x="55.499985"/>
      </g>
     </g>
    </g>
    <g id="xtick_4">
     <g id="line2d_7">
      <path d="M 253.710744 512.64 
L 253.710744 69.12 
" clip-path="url(#p246bf83df6)" style="fill: none; stroke: #b0b0b0; stroke-opacity: 0.4; stroke-width: 0.8; stroke-linecap: square"/>
     </g>
     <g id="line2d_8">
      <g>
       <use xlink:href="#ma542998f70" x="253.710744" y="512.64" style="stroke: #000000; stroke-width: 0.8"/>
      </g>
     </g>
     <g id="text_4">
      <!-- 8时 -->
      <g transform="translate(242.825744 530.783125) scale(0.14 -0.14)">
       <defs>
        <path id="SourceHanSansCN-Regular-38" d="M 1786 -83 
C 2669 -83 3258 448 3258 1133 
C 3258 1773 2874 2125 2464 2362 
L 2464 2394 
C 2746 2611 3091 3034 3091 3526 
C 3091 4250 2605 4762 1805 4762 
C 1075 4762 518 4288 518 3571 
C 518 3078 806 2726 1152 2490 
L 1152 2458 
C 723 2227 288 1792 288 1165 
C 288 442 922 -83 1786 -83 
z
M 2106 2547 
C 1555 2765 1050 3008 1050 3571 
C 1050 4026 1363 4333 1798 4333 
C 2304 4333 2592 3955 2592 3494 
C 2592 3149 2426 2829 2106 2547 
z
M 1798 352 
C 1235 352 819 717 819 1216 
C 819 1664 1082 2035 1459 2278 
C 2125 2010 2701 1773 2701 1146 
C 2701 678 2336 352 1798 352 
z
" transform="scale(0.015625)"/>
       </defs>
       <use xlink:href="#SourceHanSansCN-Regular-38"/>
       <use xlink:href="#SourceHanSansCN-Regular-65f6" x="55.499985"/>
      </g>
     </g>
    </g>
    <g id="xtick_5">
     <g id="line2d_9">
      <path d="M 299.826446 512.64 
L 299.826446 69.12 
" clip-path="url(#p246bf83df6)" style="fill: none; stroke: #b0b0b0; stroke-opacity: 0.4; stroke-width: 0.8; stroke-linecap: square"/>
     </g>
     <g id="line2d_10">
      <g>
       <use xlink:href="#ma542998f70" x="299.826446" y="512.64" style="stroke: #000000; stroke-width: 0.8"/>
      </g>
     </g>
     <g id="text_5">
      <!-- 10时 -->
      <g transform="translate(285.056446 530.783125) scale(0.14 -0.14)">
       <defs>
        <path id="SourceHanSansCN-Regular-31" d="M 563 0 
L 3136 0 
L 3136 486 
L 2195 486 
L 2195 4698 
L 1747 4698 
C 1491 4544 1190 4435 774 4358 
L 774 3987 
L 1606 3987 
L 1606 486 
L 563 486 
L 563 0 
z
" transform="scale(0.015625)"/>
        <path id="SourceHanSansCN-Regular-30" d="M 1779 -83 
C 2669 -83 3238 730 3238 2362 
C 3238 3987 2669 4781 1779 4781 
C 883 4781 314 3994 314 2362 
C 314 730 883 -83 1779 -83 
z
M 1779 384 
C 1242 384 883 979 883 2362 
C 883 3731 1242 4314 1779 4314 
C 2310 4314 2669 3731 2669 2362 
C 2669 979 2310 384 1779 384 
z
" transform="scale(0.015625)"/>
       </defs>
       <use xlink:href="#SourceHanSansCN-Regular-31"/>
       <use xlink:href="#SourceHanSansCN-Regular-30" x="55.499985"/>
       <use xlink:href="#SourceHanSansCN-Regular-65f6" x="110.999969"/>
      </g>
     </g>
    </g>
    <g id="xtick_6">
     <g id="line2d_11">
      <path d="M 345.942149 512.64 
L 345.942149 69.12 
" clip-path="url(#p246bf83df6)" style="fill: none; stroke: #b0b0b0; stroke-opacity: 0.4; stroke-width: 0.8; stroke-linecap: square"/>
     </g>
     <g id="line2d_12">
      <g>
       <use xlink:href="#ma542998f70" x="345.942149" y="512.64" style="stroke: #000000; stroke-width: 0.8"/>
      </g>
     </g>
     <g id="text_6">
      <!-- 12时 -->
      <g transform="translate(331.172149 530.783125) scale(0.14 -0.14)">
       <use xlink:href="#SourceHanSansCN-Regular-31"/>
       <use xlink:href="#SourceHanSansCN-Regular-32" x="55.499985"/>
       <use xlink:href="#SourceHanSansCN-Regular-65f6" x="110.999969"/>
      </g>
     </g>
    </g>
    <g id="xtick_7">
     <g id="line2d_13">
      <path d="M 392.057851 512.64 
L 392.057851 69.12 
" clip-path="url(#p246bf83df6)" style="fill: none; stroke: #b0b0b0; stroke-opacity: 0.4; stroke-width: 0.8; stroke-linecap: square"/>
     </g>
     <g id="line2d_14">
      <g>
       <use xlink:href="#ma542998f70" x="392.057851" y="512.64" style="stroke: #000000; stroke-width: 0.8"/>
      </g>
     </g>
     <g id="text_7">
      <!-- 14时 -->
      <g transform="translate(377.287851 530.783125) scale(0.14 -0.14)">
       <use xlink:href="#SourceHanSansCN-Regular-31"/>
       <use xlink:href="#SourceHanSansCN-Regular-34" x="55.499985"/>
       <use xlink:href="#SourceHanSansCN-Regular-65f6" x="110.999969"/>
      </g>
     </g>
    </g>
    <g id="xtick_8">
     <g id="line2d_15">
      <path d="M 438.173554 512.64 
L 438.173554 69.12 
" clip-path="url(#p246bf83df6)" style="fill: none; stroke: #b0b0b0; stroke-opacity: 0.4; stroke-width: 0.8; stroke-linecap: square"/>
     </g>
     <g id="line2d_16">
      <g>
       <use xlink:href="#ma542998f70" x="438.173554" y="512.64" style="stroke: #000000; stroke-width: 0.8"/>
      </g>
     </g>
     <g id="text_8">
      <!-- 16时 -->
      <g transform="translate(423.403554 530.783125) scale(0.14 -0.14)">
       <use xlink:href="#SourceHanSansCN-Regular-31"/>
       <use xlink:href="#SourceHanSansCN-Regular-36" x="55.499985"/>
       <use xlink:href="#SourceHanSansCN-Regular-65f6" x="110.999969"/>
      </g>
     </g>
    </g>
    <g id="xtick_9">
     <g id="line2d_17">
      <path d="M 484.289256 512.64 
L 484.289256 69.12 
" clip-path="url(#p246bf83df6)" style="fill: none; stroke: #b0b0b0; stroke-opacity: 0.4; stroke-width: 0.8; stroke-linecap: square"/>
     </g>
     <g id="line2d_18">
      <g>
       <use xlink:href="#ma542998f70" x="484.289256" y="512.64" style="stroke: #000000; stroke-width: 0.8"/>
      </g>
     </g>
     <g id="text_9">
      <!-- 18时 -->
      <g transform="translate(469.519256 530.783125) scale(0.14 -0.14)">
       <use xlink:href="#SourceHanSansCN-Regular-31"/>
       <use xlink:href="#SourceHanSansCN-Regular-38" x="55.499985"/>
       <use xlink:href="#SourceHanSansCN-Regular-65f6" x="110.999969"/>
      </g>
     </g>
    </g>
    <g id="xtick_10">
     <g id="line2d_19">
      <path d="M 530.404959 512.64 
L 530.404959 69.12 
" clip-path="url(#p246bf83df6)" style="fill: none; stroke: #b0b0b0; stroke-opacity: 0.4; stroke-width: 0.8; stroke-linecap: square"/>
     </g>
     <g id="line2d_20">
      <g>
       <use xlink:href="#ma542998f70" x="530.404959" y="512.64" style="stroke: #000000; stroke-width: 0.8"/>
      </g>
     </g>
     <g id="text_10">
      <!-- 20时 -->
      <g transform="translate(515.634959 530.783125) scale(0.14 -0.14)">
       <use xlink:href="#SourceHanSansCN-Regular-32"/>
       <use xlink:href="#SourceHanSansCN-Regular-30" x="55.499985"/>
       <use xlink:href="#SourceHanSansCN-Regular-65f6" x="110.999969"/>
      </g>
     </g>
    </g>
    <g id="xtick_11">
     <g id="line2d_21">
      <path d="M 576.520661 512.64 
L 576.520661 69.12 
" clip-path="url(#p246bf83df6)" style="fill: none; stroke: #b0b0b0; stroke-opacity: 0.4; stroke-width: 0.8; stroke-linecap: square"/>
     </g>
     <g id="line2d_22">
      <g>
       <use xlink:href="#ma542998f70" x="576.520661" y="512.64" style="stroke: #000000; stroke-width: 0.8"/>
      </g>
     </g>
     <g id="text_11">
      <!-- 22时 -->
      <g transform="translate(561.750661 530.783125) scale(0.14 -0.14)">
       <use xlink:href="#SourceHanSansCN-Regular-32"/>
       <use xlink:href="#SourceHanSansCN-Regular-32" x="55.499985"/>
       <use xlink:href="#SourceHanSansCN-Regular-65f6" x="110.999969"/>
      </g>
     </g>
    </g>
    <g id="xtick_12">
     <g id="line2d_23">
      <path d="M 622.636364 512.64 
L 622.636364 69.12 
" clip-path="url(#p246bf83df6)" style="fill: none; stroke: #b0b0b0; stroke-opacity: 0.4; stroke-width: 0.8; stroke-linecap: square"/>
     </g>
     <g id="line2d_24">
      <g>
       <use xlink:href="#ma542998f70" x="622.636364" y="512.64" style="stroke: #000000; stroke-width: 0.8"/>
      </g>
     </g>
     <g id="text_12">
      <!-- 24时 -->
      <g transform="translate(607.866364 530.783125) scale(0.14 -0.14)">
       <use xlink:href="#SourceHanSansCN-Regular-32"/>
       <use xlink:href="#SourceHanSansCN-Regular-34" x="55.499985"/>
       <use xlink:href="#SourceHanSansCN-Regular-65f6" x="110.999969"/>
      </g>
     </g>
    </g>
    <g id="text_13">
     <!-- 时间/h -->
     <g transform="translate(348.006562 549.133125) scale(0.14 -0.14)">
      <defs>
       <path id="SourceHanSansCN-Regular-95f4" d="M 608 -493 
L 1088 -493 
L 1088 3917 
L 608 3917 
L 608 -493 
z
M 704 5043 
C 992 4762 1325 4365 1472 4109 
L 1856 4365 
C 1709 4627 1363 5005 1069 5267 
L 704 5043 
z
M 2432 1894 
L 3955 1894 
L 3955 1037 
L 2432 1037 
L 2432 1894 
z
M 2432 3142 
L 3955 3142 
L 3955 2291 
L 2432 2291 
L 2432 3142 
z
M 2003 640 
L 4403 640 
L 4403 3539 
L 2003 3539 
L 2003 640 
z
M 5818 4992 
L 2259 4992 
L 2259 4544 
L 5331 4544 
L 5331 90 
C 5331 6 5306 -26 5222 -26 
C 5152 -26 4883 -32 4614 -19 
C 4678 -147 4742 -339 4768 -467 
C 5158 -467 5427 -461 5594 -378 
C 5760 -301 5818 -179 5818 90 
L 5818 4992 
z
" transform="scale(0.015625)"/>
       <path id="SourceHanSansCN-Regular-2f" d="M 70 -1146 
L 499 -1146 
L 2413 5082 
L 1990 5082 
L 70 -1146 
z
" transform="scale(0.015625)"/>
       <path id="SourceHanSansCN-Regular-68" d="M 589 0 
L 1171 0 
L 1171 2522 
C 1523 2874 1766 3053 2125 3053 
C 2586 3053 2784 2778 2784 2125 
L 2784 0 
L 3366 0 
L 3366 2202 
C 3366 3091 3034 3565 2304 3565 
C 1830 3565 1472 3302 1152 2982 
L 1171 3699 
L 1171 5094 
L 589 5094 
L 589 0 
z
" transform="scale(0.015625)"/>
      </defs>
      <use xlink:href="#SourceHanSansCN-Regular-65f6"/>
      <use xlink:href="#SourceHanSansCN-Regular-95f4" x="99.999985"/>
      <use xlink:href="#SourceHanSansCN-Regular-2f" x="199.999969"/>
      <use xlink:href="#SourceHanSansCN-Regular-68" x="239.199966"/>
     </g>
    </g>
   </g>
   <g id="matplotlib.axis_2">
    <g id="ytick_1">
     <g id="line2d_25">
      <path d="M 90 492.48 
L 648 492.48 
" clip-path="url(#p246bf83df6)" style="fill: none; stroke: #b0b0b0; stroke-opacity: 0.4; stroke-width: 0.8; stroke-linecap: square"/>
     </g>
     <g id="line2d_26">
      <defs>
       <path id="mf911b65172" d="M 0 0 
L -3.5 0 
" style="stroke: #000000; stroke-width: 0.8"/>
      </defs>
      <g>
       <use xlink:href="#mf911b65172" x="90" y="492.48" style="stroke: #000000; stroke-width: 0.8"/>
      </g>
     </g>
     <g id="text_14">
      <!-- 20 -->
      <g transform="translate(67.46 498.051563) scale(0.14 -0.14)">
       <use xlink:href="#SourceHanSansCN-Regular-32"/>
       <use xlink:href="#SourceHanSansCN-Regular-30" x="55.499985"/>
      </g>
     </g>
    </g>
    <g id="ytick_2">
     <g id="line2d_27">
      <path d="M 90 438.72 
L 648 438.72 
" clip-path="url(#p246bf83df6)" style="fill: none; stroke: #b0b0b0; stroke-opacity: 0.4; stroke-width: 0.8; stroke-linecap: square"/>
     </g>
     <g id="line2d_28">
      <g>
       <use xlink:href="#mf911b65172" x="90" y="438.72" style="stroke: #000000; stroke-width: 0.8"/>
      </g>
     </g>
     <g id="text_15">
      <!-- 22 -->
      <g transform="translate(67.46 444.291563) scale(0.14 -0.14)">
       <use xlink:href="#SourceHanSansCN-Regular-32"/>
       <use xlink:href="#SourceHanSansCN-Regular-32" x="55.499985"/>
      </g>
     </g>
    </g>
    <g id="ytick_3">
     <g id="line2d_29">
      <path d="M 90 384.96 
L 648 384.96 
" clip-path="url(#p246bf83df6)" style="fill: none; stroke: #b0b0b0; stroke-opacity: 0.4; stroke-width: 0.8; stroke-linecap: square"/>
     </g>
     <g id="line2d_30">
      <g>
       <use xlink:href="#mf911b65172" x="90" y="384.96" style="stroke: #000000; stroke-width: 0.8"/>
      </g>
     </g>
     <g id="text_16">
      <!-- 24 -->
      <g transform="translate(67.46 390.531563) scale(0.14 -0.14)">
       <use xlink:href="#SourceHanSansCN-Regular-32"/>
       <use xlink:href="#SourceHanSansCN-Regular-34" x="55.499985"/>
      </g>
     </g>
    </g>
    <g id="ytick_4">
     <g id="line2d_31">
      <path d="M 90 331.2 
L 648 331.2 
" clip-path="url(#p246bf83df6)" style="fill: none; stroke: #b0b0b0; stroke-opacity: 0.4; stroke-width: 0.8; stroke-linecap: square"/>
     </g>
     <g id="line2d_32">
      <g>
       <use xlink:href="#mf911b65172" x="90" y="331.2" style="stroke: #000000; stroke-width: 0.8"/>
      </g>
     </g>
     <g id="text_17">
      <!-- 26 -->
      <g transform="translate(67.46 336.771563) scale(0.14 -0.14)">
       <use xlink:href="#SourceHanSansCN-Regular-32"/>
       <use xlink:href="#SourceHanSansCN-Regular-36" x="55.499985"/>
      </g>
     </g>
    </g>
    <g id="ytick_5">
     <g id="line2d_33">
      <path d="M 90 277.44 
L 648 277.44 
" clip-path="url(#p246bf83df6)" style="fill: none; stroke: #b0b0b0; stroke-opacity: 0.4; stroke-width: 0.8; stroke-linecap: square"/>
     </g>
     <g id="line2d_34">
      <g>
       <use xlink:href="#mf911b65172" x="90" y="277.44" style="stroke: #000000; stroke-width: 0.8"/>
      </g>
     </g>
     <g id="text_18">
      <!-- 28 -->
      <g transform="translate(67.46 283.011563) scale(0.14 -0.14)">
       <use xlink:href="#SourceHanSansCN-Regular-32"/>
       <use xlink:href="#SourceHanSansCN-Regular-38" x="55.499985"/>
      </g>
     </g>
    </g>
    <g id="ytick_6">
     <g id="line2d_35">
      <path d="M 90 223.68 
L 648 223.68 
" clip-path="url(#p246bf83df6)" style="fill: none; stroke: #b0b0b0; stroke-opacity: 0.4; stroke-width: 0.8; stroke-linecap: square"/>
     </g>
     <g id="line2d_36">
      <g>
       <use xlink:href="#mf911b65172" x="90" y="223.68" style="stroke: #000000; stroke-width: 0.8"/>
      </g>
     </g>
     <g id="text_19">
      <!-- 30 -->
      <g transform="translate(67.46 229.251563) scale(0.14 -0.14)">
       <defs>
        <path id="SourceHanSansCN-Regular-33" d="M 1690 -83 
C 2522 -83 3194 416 3194 1254 
C 3194 1894 2752 2317 2202 2445 
L 2202 2470 
C 2694 2656 3034 3034 3034 3603 
C 3034 4346 2458 4781 1670 4781 
C 1126 4781 710 4544 358 4218 
L 672 3846 
C 934 4115 1267 4301 1645 4301 
C 2131 4301 2438 4006 2438 3558 
C 2438 3053 2106 2662 1139 2662 
L 1139 2214 
C 2221 2214 2598 1837 2598 1280 
C 2598 736 2202 403 1645 403 
C 1114 403 755 653 480 941 
L 186 557 
C 493 224 954 -83 1690 -83 
z
" transform="scale(0.015625)"/>
       </defs>
       <use xlink:href="#SourceHanSansCN-Regular-33"/>
       <use xlink:href="#SourceHanSansCN-Regular-30" x="55.499985"/>
      </g>
     </g>
    </g>
    <g id="ytick_7">
     <g id="line2d_37">
      <path d="M 90 169.92 
L 648 169.92 
" clip-path="url(#p246bf83df6)" style="fill: none; stroke: #b0b0b0; stroke-opacity: 0.4; stroke-width: 0.8; stroke-linecap: square"/>
     </g>
     <g id="line2d_38">
      <g>
       <use xlink:href="#mf911b65172" x="90" y="169.92" style="stroke: #000000; stroke-width: 0.8"/>
      </g>
     </g>
     <g id="text_20">
      <!-- 32 -->
      <g transform="translate(67.46 175.491563) scale(0.14 -0.14)">
       <use xlink:href="#SourceHanSansCN-Regular-33"/>
       <use xlink:href="#SourceHanSansCN-Regular-32" x="55.499985"/>
      </g>
     </g>
    </g>
    <g id="ytick_8">
     <g id="line2d_39">
      <path d="M 90 116.16 
L 648 116.16 
" clip-path="url(#p246bf83df6)" style="fill: none; stroke: #b0b0b0; stroke-opacity: 0.4; stroke-width: 0.8; stroke-linecap: square"/>
     </g>
     <g id="line2d_40">
      <g>
       <use xlink:href="#mf911b65172" x="90" y="116.16" style="stroke: #000000; stroke-width: 0.8"/>
      </g>
     </g>
     <g id="text_21">
      <!-- 34 -->
      <g transform="translate(67.46 121.731563) scale(0.14 -0.14)">
       <use xlink:href="#SourceHanSansCN-Regular-33"/>
       <use xlink:href="#SourceHanSansCN-Regular-34" x="55.499985"/>
      </g>
     </g>
    </g>
    <g id="text_22">
     <!-- 温度/℃ -->
     <g transform="translate(60.253125 314.624219) rotate(-90) scale(0.14 -0.14)">
      <defs>
       <path id="SourceHanSansCN-Regular-6e29" d="M 5024 4051 
L 2848 4051 
L 2848 4672 
L 5024 4672 
L 5024 4051 
z
M 5024 3040 
L 2848 3040 
L 2848 3667 
L 5024 3667 
L 5024 3040 
z
M 5491 5075 
L 2400 5075 
L 2400 2637 
L 5491 2637 
L 5491 5075 
z
M 2067 4634 
C 1811 4845 1299 5120 902 5274 
L 646 4934 
C 1043 4755 1549 4467 1798 4250 
L 2067 4634 
z
M 1696 2899 
C 1434 3110 922 3386 512 3546 
L 269 3206 
C 678 3027 1190 2726 1440 2509 
L 1696 2899 
z
M 1574 1958 
C 1229 1235 755 403 429 -83 
L 832 -378 
C 1184 211 1613 1005 1926 1670 
L 1574 1958 
z
M 2624 1683 
L 3245 1683 
L 3245 122 
L 2624 122 
L 2624 1683 
z
M 4243 1683 
L 4243 122 
L 3616 122 
L 3616 1683 
L 4243 1683 
z
M 5248 1683 
L 5248 122 
L 4621 122 
L 4621 1683 
L 5248 1683 
z
M 5702 122 
L 5702 2093 
L 2195 2093 
L 2195 122 
L 1651 122 
L 1651 -301 
L 6131 -301 
L 6131 122 
L 5702 122 
z
" transform="scale(0.015625)"/>
       <path id="SourceHanSansCN-Regular-5ea6" d="M 1293 4275 
L 6048 4275 
L 6048 4717 
L 3827 4717 
C 3750 4922 3622 5184 3501 5389 
L 3034 5274 
C 3123 5107 3219 4896 3290 4717 
L 826 4717 
L 826 2995 
C 826 2042 774 685 256 -275 
C 371 -314 589 -416 678 -493 
C 1216 512 1293 1978 1293 2995 
L 1293 4275 
z
M 4480 3162 
L 4480 2490 
L 2931 2490 
L 2931 3162 
L 4480 3162 
z
M 4947 2106 
L 4947 3162 
L 5978 3162 
L 5978 3558 
L 4947 3558 
L 4947 4109 
L 4480 4109 
L 4480 3558 
L 2931 3558 
L 2931 4109 
L 2477 4109 
L 2477 3558 
L 1453 3558 
L 1453 3162 
L 2477 3162 
L 2477 2106 
L 4947 2106 
z
M 4826 1306 
C 4550 973 4154 710 3699 512 
C 3245 723 2874 986 2618 1306 
L 4826 1306 
z
M 5242 1722 
L 5152 1696 
L 1536 1696 
L 1536 1306 
L 2374 1306 
L 2150 1216 
C 2413 851 2758 557 3181 314 
C 2586 122 1914 6 1235 -58 
C 1312 -160 1402 -346 1440 -454 
C 2227 -365 3002 -205 3680 58 
C 4314 -218 5062 -403 5862 -493 
C 5920 -371 6035 -179 6131 -83 
C 5427 -19 4774 109 4211 301 
C 4774 608 5242 1011 5536 1555 
L 5242 1722 
z
" transform="scale(0.015625)"/>
       <path id="SourceHanSansCN-Regular-2103" d="M 1203 3053 
C 1683 3053 2099 3418 2099 3968 
C 2099 4531 1683 4883 1203 4883 
C 717 4883 301 4531 301 3968 
C 301 3418 717 3053 1203 3053 
z
M 1203 3386 
C 883 3386 666 3629 666 3968 
C 666 4314 883 4550 1203 4550 
C 1517 4550 1741 4314 1741 3968 
C 1741 3629 1517 3386 1203 3386 
z
M 4704 -83 
C 5299 -83 5760 154 6131 589 
L 5779 966 
C 5485 634 5165 454 4717 454 
C 3834 454 3277 1184 3277 2349 
C 3277 3507 3859 4230 4742 4230 
C 5133 4230 5427 4070 5677 3808 
L 6022 4192 
C 5747 4486 5293 4768 4736 4768 
C 3533 4768 2643 3853 2643 2336 
C 2643 813 3520 -83 4704 -83 
z
" transform="scale(0.015625)"/>
      </defs>
      <use xlink:href="#SourceHanSansCN-Regular-6e29"/>
      <use xlink:href="#SourceHanSansCN-Regular-5ea6" x="99.999985"/>
      <use xlink:href="#SourceHanSansCN-Regular-2f" x="199.999969"/>
      <use xlink:href="#SourceHanSansCN-Regular-2103" x="239.199966"/>
     </g>
    </g>
   </g>
   <g id="line2d_41">
    <path d="M 115.363636 304.32 
L 161.479339 358.08 
L 207.595041 250.56 
L 253.710744 304.32 
L 299.826446 116.16 
L 345.942149 277.44 
L 392.057851 196.8 
L 438.173554 304.32 
L 484.289256 89.28 
L 530.404959 143.04 
L 576.520661 384.96 
L 622.636364 358.08 
" clip-path="url(#p246bf83df6)" style="fill: none; stroke-dasharray: 7.4,3.2; stroke-dashoffset: 0; stroke: #ff0000; stroke-opacity: 0.7; stroke-width: 2"/>
   </g>
   <g id="line2d_42">
    <path d="M 115.363636 277.44 
L 161.479339 250.56 
L 207.595041 223.68 
L 253.710744 223.68 
L 299.826446 169.92 
L 345.942149 89.28 
L 392.057851 411.84 
L 438.173554 492.48 
L 484.289256 304.32 
L 530.404959 384.96 
L 576.520661 331.2 
L 622.636364 331.2 
" clip-path="url(#p246bf83df6)" style="fill: none; stroke: #1f77b4; stroke-width: 1.5; stroke-linecap: square"/>
   </g>
   <g id="patch_3">
    <path d="M 90 512.64 
L 90 69.12 
" style="fill: none; stroke: #000000; stroke-width: 0.8; stroke-linejoin: miter; stroke-linecap: square"/>
   </g>
   <g id="patch_4">
    <path d="M 648 512.64 
L 648 69.12 
" style="fill: none; stroke: #000000; stroke-width: 0.8; stroke-linejoin: miter; stroke-linecap: square"/>
   </g>
   <g id="patch_5">
    <path d="M 90 512.64 
L 648 512.64 
" style="fill: none; stroke: #000000; stroke-width: 0.8; stroke-linejoin: miter; stroke-linecap: square"/>
   </g>
   <g id="patch_6">
    <path d="M 90 69.12 
L 648 69.12 
" style="fill: none; stroke: #000000; stroke-width: 0.8; stroke-linejoin: miter; stroke-linecap: square"/>
   </g>
   <g id="text_23">
    <!-- 气温变化情况 -->
    <g transform="translate(327 63.12) scale(0.14 -0.14)">
     <defs>
      <path id="SourceHanSansCN-Regular-6c14" d="M 5914 4230 
L 5914 4640 
L 1882 4640 
C 1971 4838 2054 5043 2125 5248 
L 1658 5370 
C 1350 4442 826 3565 211 3002 
C 320 2944 538 2797 627 2714 
C 1011 3110 1382 3635 1690 4230 
L 5914 4230 
z
M 5440 3360 
L 5440 3763 
L 1638 3763 
L 1638 3360 
L 5440 3360 
z
M 998 2861 
L 998 2445 
L 4454 2445 
C 4538 800 4768 -486 5613 -486 
C 5984 -486 6099 -186 6138 570 
C 6035 634 5901 749 5805 845 
C 5798 314 5760 -19 5638 -19 
C 5139 -19 4966 1402 4922 2861 
L 998 2861 
z
" transform="scale(0.015625)"/>
      <path id="SourceHanSansCN-Regular-53d8" d="M 2227 2349 
L 2701 2349 
L 2701 4282 
L 3693 4282 
L 3693 2355 
L 4160 2355 
L 4160 4282 
L 5933 4282 
L 5933 4704 
L 3629 4704 
C 3539 4902 3373 5197 3226 5414 
L 2765 5299 
C 2886 5120 3008 4890 3091 4704 
L 474 4704 
L 474 4282 
L 2227 4282 
L 2227 2349 
z
M 4410 3770 
C 4800 3411 5267 2880 5498 2534 
L 5869 2778 
C 5645 3104 5178 3616 4768 3974 
L 4410 3770 
z
M 1440 4013 
C 1254 3552 934 3104 582 2797 
C 691 2739 870 2618 954 2541 
C 1299 2874 1658 3386 1869 3898 
L 1440 4013 
z
M 4538 1747 
C 4205 1318 3750 979 3200 710 
C 2662 986 2221 1331 1894 1747 
L 4538 1747 
z
M 4947 2195 
L 4864 2170 
L 864 2170 
L 864 1747 
L 1382 1747 
C 1722 1248 2170 832 2714 493 
C 2003 211 1184 26 352 -83 
C 435 -186 544 -384 589 -506 
C 1498 -358 2400 -128 3187 237 
C 3942 -134 4832 -378 5824 -506 
C 5882 -378 5990 -192 6093 -90 
C 5197 13 4378 198 3686 486 
C 4339 864 4890 1350 5254 1978 
L 4947 2195 
z
" transform="scale(0.015625)"/>
      <path id="SourceHanSansCN-Regular-5316" d="M 2016 5350 
C 1626 4371 973 3424 294 2816 
C 390 2714 550 2464 608 2362 
C 864 2598 1107 2886 1344 3200 
L 1344 -493 
L 1837 -493 
L 1837 3942 
C 2080 4339 2304 4768 2483 5203 
L 2016 5350 
z
M 4179 96 
C 3872 96 3808 166 3808 518 
L 3808 1978 
C 4627 2573 5408 3309 5990 4122 
L 5523 4429 
C 5082 3744 4474 3117 3808 2586 
L 3808 5235 
L 3309 5235 
L 3309 2208 
C 2899 1926 2477 1677 2067 1478 
C 2189 1382 2342 1216 2419 1120 
C 2714 1267 3014 1440 3309 1632 
L 3309 531 
C 3309 -179 3488 -371 4128 -371 
L 5254 -371 
C 5926 -371 6067 38 6131 1229 
C 5990 1261 5792 1363 5664 1459 
C 5613 371 5568 96 5229 96 
L 4179 96 
z
" transform="scale(0.015625)"/>
      <path id="SourceHanSansCN-Regular-60c5" d="M 570 2374 
C 717 2848 819 3584 845 4083 
L 493 4128 
C 448 3622 346 2925 205 2496 
L 570 2374 
z
M 986 -486 
L 1427 -486 
L 1427 5357 
L 986 5357 
L 986 -486 
z
M 1478 4294 
C 1613 3994 1760 3597 1811 3354 
L 2144 3520 
C 2086 3750 1933 4134 1792 4422 
L 1478 4294 
z
M 2854 864 
L 2854 1350 
L 5158 1350 
L 5158 864 
L 2854 864 
z
M 5158 2189 
L 5158 1709 
L 2854 1709 
L 2854 2189 
L 5158 2189 
z
M 5613 2560 
L 2406 2560 
L 2406 -486 
L 2854 -486 
L 2854 512 
L 5158 512 
L 5158 51 
C 5158 -32 5126 -58 5037 -58 
C 4960 -64 4653 -64 4333 -51 
C 4390 -173 4442 -346 4467 -461 
C 4922 -467 5203 -461 5382 -390 
C 5562 -320 5613 -198 5613 45 
L 5613 2560 
z
M 4243 3290 
L 4243 3738 
L 5766 3738 
L 5766 4083 
L 4243 4083 
L 4243 4493 
L 5926 4493 
L 5926 4858 
L 4243 4858 
L 4243 5357 
L 3776 5357 
L 3776 4858 
L 2144 4858 
L 2144 4493 
L 3776 4493 
L 3776 4083 
L 2298 4083 
L 2298 3738 
L 3776 3738 
L 3776 3290 
L 1952 3290 
L 1952 2925 
L 6106 2925 
L 6106 3290 
L 4243 3290 
z
" transform="scale(0.015625)"/>
      <path id="SourceHanSansCN-Regular-51b5" d="M 1901 3930 
C 1683 4243 1203 4685 806 4992 
L 480 4685 
C 877 4358 1344 3898 1549 3578 
L 1901 3930 
z
M 1542 2656 
C 1158 1933 634 1082 282 582 
L 653 243 
C 1043 838 1510 1658 1862 2336 
L 1542 2656 
z
M 2810 4595 
L 5235 4595 
L 5235 2874 
L 2810 2874 
L 2810 4595 
z
M 4979 32 
C 4813 32 4774 70 4774 256 
L 4774 2419 
L 5722 2419 
L 5722 5050 
L 2355 5050 
L 2355 2419 
L 3085 2419 
C 3021 1139 2810 326 1568 -115 
C 1677 -198 1805 -378 1856 -486 
C 3213 26 3482 973 3565 2419 
L 4314 2419 
L 4314 250 
C 4314 -243 4435 -390 4922 -390 
L 5568 -390 
C 6010 -390 6125 -134 6176 832 
C 6048 864 5856 941 5754 1024 
C 5734 179 5702 32 5530 32 
L 4979 32 
z
" transform="scale(0.015625)"/>
     </defs>
     <use xlink:href="#SourceHanSansCN-Regular-6c14"/>
     <use xlink:href="#SourceHanSansCN-Regular-6e29" x="99.999985"/>
     <use xlink:href="#SourceHanSansCN-Regular-53d8" x="199.999969"/>
     <use xlink:href="#SourceHanSansCN-Regular-5316" x="299.999954"/>
     <use xlink:href="#SourceHanSansCN-Regular-60c5" x="399.999939"/>
     <use xlink:href="#SourceHanSansCN-Regular-51b5" x="499.999924"/>
    </g>
   </g>
   <g id="legend_1">
    <g id="patch_7">
     <path d="M 565.4 123.02 
L 638.2 123.02 
Q 641 123.02 641 120.22 
L 641 78.92 
Q 641 76.12 638.2 76.12 
L 565.4 76.12 
Q 562.6 76.12 562.6 78.92 
L 562.6 120.22 
Q 562.6 123.02 565.4 123.02 
z
" style="fill: #ffffff; opacity: 0.8; stroke: #cccccc; stroke-linejoin: miter"/>
    </g>
    <g id="line2d_43">
     <path d="M 568.2 87.963125 
L 582.2 87.963125 
L 596.2 87.963125 
" style="fill: none; stroke-dasharray: 7.4,3.2; stroke-dashoffset: 0; stroke: #ff0000; stroke-opacity: 0.7; stroke-width: 2"/>
    </g>
    <g id="text_24">
     <!-- 海淀 -->
     <g transform="translate(607.4 92.863125) scale(0.14 -0.14)">
      <defs>
       <path id="SourceHanSansCN-Regular-6d77" d="M 1600 2797 
C 1370 2989 915 3251 550 3411 
L 288 3085 
C 653 2912 1101 2630 1331 2426 
L 1600 2797 
z
M 890 -384 
C 1165 211 1485 1018 1722 1683 
L 1357 1952 
C 1094 1222 730 378 474 -122 
L 890 -384 
z
M 627 4941 
C 1011 4762 1491 4467 1722 4262 
L 2003 4627 
C 1760 4826 1274 5107 896 5267 
L 627 4941 
z
M 5984 4198 
L 5984 4634 
L 3059 4634 
C 3142 4832 3226 5037 3296 5242 
L 2829 5357 
C 2598 4614 2208 3872 1754 3386 
C 1875 3328 2074 3200 2170 3123 
C 2406 3411 2650 3782 2854 4198 
L 5984 4198 
z
M 3398 1651 
C 3680 1414 4006 1075 4154 858 
L 4448 1056 
C 4288 1286 3955 1606 3674 1824 
L 3398 1651 
z
M 2720 858 
C 2765 1152 2816 1491 2861 1843 
L 5171 1843 
C 5146 1434 5114 1114 5082 858 
L 2720 858 
z
M 5235 3168 
C 5222 2835 5210 2547 5190 2278 
L 4282 2278 
L 4550 2464 
C 4410 2669 4096 2970 3827 3168 
L 3565 2995 
C 3834 2790 4134 2490 4269 2278 
L 2925 2278 
C 2963 2579 3002 2880 3040 3168 
L 5235 3168 
z
M 6144 1843 
L 6144 2278 
L 5638 2278 
C 5651 2598 5670 2957 5690 3360 
C 5690 3418 5696 3584 5696 3584 
L 2637 3584 
C 2598 3187 2541 2733 2483 2278 
L 1830 2278 
L 1830 1843 
L 2419 1843 
C 2349 1318 2266 813 2189 435 
L 5018 435 
C 4973 230 4928 102 4870 45 
C 4813 -32 4749 -45 4634 -45 
C 4518 -45 4218 -38 3891 -13 
C 3955 -128 4000 -294 4013 -416 
C 4320 -435 4640 -448 4819 -429 
C 5011 -410 5146 -358 5261 -205 
C 5350 -96 5414 90 5478 435 
L 5965 435 
L 5965 858 
L 5536 858 
C 5562 1120 5587 1446 5619 1843 
L 6144 1843 
z
" transform="scale(0.015625)"/>
       <path id="SourceHanSansCN-Regular-6dc0" d="M 2611 4109 
L 5517 4109 
L 5517 3475 
L 5984 3475 
L 5984 4538 
L 4275 4538 
L 4397 4576 
C 4352 4794 4205 5133 4058 5382 
L 3635 5267 
C 3750 5037 3866 4749 3923 4538 
L 2157 4538 
L 2157 3475 
L 2611 3475 
L 2611 4109 
z
M 1958 4557 
C 1728 4787 1254 5082 870 5280 
L 582 4954 
C 973 4749 1434 4429 1658 4192 
L 1958 4557 
z
M 1696 2906 
C 1453 3123 954 3411 550 3571 
L 282 3238 
C 685 3053 1171 2746 1408 2522 
L 1696 2906 
z
M 1536 1971 
C 1203 1235 749 384 435 -122 
L 851 -403 
C 1190 198 1600 1005 1901 1683 
L 1536 1971 
z
M 5005 70 
C 4768 70 4550 83 4339 122 
L 4339 1414 
L 5715 1414 
L 5715 1843 
L 4339 1843 
L 4339 2835 
L 5779 2835 
L 5779 3270 
L 2355 3270 
L 2355 2835 
L 3872 2835 
L 3872 250 
C 3469 435 3149 774 2950 1427 
C 3014 1709 3066 2010 3098 2336 
L 2643 2381 
C 2528 1261 2246 339 1645 -230 
C 1760 -294 1952 -435 2029 -512 
C 2368 -147 2618 314 2797 864 
C 3251 -166 4000 -365 4986 -365 
L 6022 -365 
C 6042 -237 6112 -32 6170 70 
L 5005 70 
z
" transform="scale(0.015625)"/>
      </defs>
      <use xlink:href="#SourceHanSansCN-Regular-6d77"/>
      <use xlink:href="#SourceHanSansCN-Regular-6dc0" x="99.999985"/>
     </g>
    </g>
    <g id="line2d_44">
     <path d="M 568.2 109.313125 
L 582.2 109.313125 
L 596.2 109.313125 
" style="fill: none; stroke: #1f77b4; stroke-width: 1.5; stroke-linecap: square"/>
    </g>
    <g id="text_25">
     <!-- 东城 -->
     <g transform="translate(607.4 114.213125) scale(0.14 -0.14)">
      <defs>
       <path id="SourceHanSansCN-Regular-4e1c" d="M 1664 1670 
C 1402 1069 947 474 480 83 
C 595 6 794 -141 883 -230 
C 1344 205 1830 877 2131 1549 
L 1664 1670 
z
M 5568 2182 
L 5574 2643 
L 3725 2643 
L 3725 3578 
L 3251 3578 
L 3251 2643 
L 1741 2643 
C 2042 3059 2349 3546 2630 4058 
L 5837 4058 
L 5837 4512 
L 2874 4512 
C 2989 4730 3098 4960 3194 5178 
L 2701 5389 
C 2579 5094 2445 4794 2298 4512 
L 518 4512 
L 518 4058 
L 2061 4058 
C 1805 3597 1568 3226 1459 3078 
C 1261 2797 1126 2618 979 2579 
C 1043 2445 1126 2195 1158 2086 
C 1216 2150 1466 2182 1843 2182 
L 3251 2182 
L 3251 166 
C 3251 77 3226 51 3123 45 
C 3021 38 2682 38 2310 51 
C 2387 -83 2470 -301 2490 -435 
C 2944 -435 3270 -422 3469 -339 
C 3661 -262 3725 -122 3725 160 
L 3725 2182 
L 5568 2182 
z
M 4250 1485 
C 4749 986 5318 288 5568 -147 
L 5997 83 
C 5728 531 5139 1203 4640 1683 
L 4250 1485 
z
" transform="scale(0.015625)"/>
       <path id="SourceHanSansCN-Regular-57ce" d="M 2099 1491 
L 1478 1261 
L 1478 3360 
L 2086 3360 
L 2086 3802 
L 1478 3802 
L 1478 5280 
L 1037 5280 
L 1037 3802 
L 371 3802 
L 371 3360 
L 1037 3360 
L 1037 1101 
C 755 998 499 909 288 838 
L 442 371 
C 941 570 1581 813 2189 1069 
L 2099 1491 
z
M 5523 3226 
C 5382 2637 5197 2106 4941 1632 
C 4845 2259 4768 3053 4736 3936 
L 6074 3936 
L 6074 4378 
L 5606 4378 
L 5926 4595 
C 5773 4813 5446 5107 5165 5312 
L 4845 5107 
C 5114 4896 5427 4582 5581 4378 
L 4723 4378 
C 4717 4691 4717 5024 4717 5357 
L 4262 5357 
C 4262 5024 4269 4698 4282 4378 
L 2355 4378 
L 2355 2400 
C 2355 1574 2291 525 1651 -211 
C 1754 -269 1933 -422 2003 -512 
C 2688 282 2797 1498 2797 2394 
L 2797 2675 
L 3603 2675 
C 3584 1530 3558 1120 3488 1024 
C 3462 966 3411 960 3334 960 
C 3251 960 3053 960 2835 979 
C 2899 870 2931 704 2944 576 
C 3174 563 3398 563 3520 576 
C 3674 595 3770 640 3846 755 
C 3968 915 3994 1427 4013 2886 
C 4019 2944 4019 3078 4019 3078 
L 2797 3078 
L 2797 3936 
L 4294 3936 
C 4339 2829 4435 1830 4602 1069 
C 4256 576 3840 166 3341 -141 
C 3437 -205 3610 -378 3674 -467 
C 4083 -192 4435 147 4742 538 
C 4941 -64 5210 -422 5568 -422 
C 5984 -422 6118 -128 6189 832 
C 6074 877 5926 973 5837 1075 
C 5811 339 5747 26 5626 26 
C 5408 26 5222 384 5069 998 
C 5459 1606 5754 2323 5965 3155 
L 5523 3226 
z
" transform="scale(0.015625)"/>
      </defs>
      <use xlink:href="#SourceHanSansCN-Regular-4e1c"/>
      <use xlink:href="#SourceHanSansCN-Regular-57ce" x="99.999985"/>
     </g>
    </g>
   </g>
  </g>
 </g>
 <defs>
  <clipPath id="p246bf83df6">
   <rect x="90" y="69.12" width="558" height="443.52"/>
  </clipPath>
 </defs>
</svg>
